<?xml version="1.0" encoding="UTF-8" standalone="no"?>
<svg
   xmlns:dc="http://purl.org/dc/elements/1.1/"
   xmlns:cc="http://creativecommons.org/ns#"
   xmlns:rdf="http://www.w3.org/1999/02/22-rdf-syntax-ns#"
   xmlns:svg="http://www.w3.org/2000/svg"
   xmlns="http://www.w3.org/2000/svg"
   xmlns:xlink="http://www.w3.org/1999/xlink"
   xmlns:sodipodi="http://sodipodi.sourceforge.net/DTD/sodipodi-0.dtd"
   xmlns:inkscape="http://www.inkscape.org/namespaces/inkscape"
   width="190.59369"
   height="182.51654"
   viewBox="0 0 190.59369 182.51654"
   version="1.1"
   id="svg5526"
   sodipodi:docname="elegirnos3.svg"
   inkscape:version="1.0.1 (3bc2e813f5, 2020-09-07)">
  <metadata
     id="metadata5530">
    <rdf:RDF>
      <cc:Work
         rdf:about="">
        <dc:format>image/svg+xml</dc:format>
        <dc:type
           rdf:resource="http://purl.org/dc/dcmitype/StillImage" />
        <dc:title></dc:title>
      </cc:Work>
    </rdf:RDF>
  </metadata>
  <sodipodi:namedview
     pagecolor="#ffffff"
     bordercolor="#666666"
     borderopacity="1"
     objecttolerance="10"
     gridtolerance="10"
     guidetolerance="10"
     inkscape:pageopacity="0"
     inkscape:pageshadow="2"
     inkscape:window-width="640"
     inkscape:window-height="480"
     id="namedview5528"
     showgrid="false"
     inkscape:zoom="0.14109625"
     inkscape:cx="-454.06331"
     inkscape:cy="-852.13595"
     inkscape:current-layer="layer2"
     inkscape:document-rotation="0"
     fit-margin-top="0"
     fit-margin-left="0"
     fit-margin-right="0"
     fit-margin-bottom="0" />
  <defs
     id="defs115">
    <style
       id="style2">.a,.g,.gy,.h,.hf,.hk,.hl,.hq,.i,.p{fill:#fff;}.a,.hu{stroke:#707070;}.b,.hb{fill:none;}.c{clip-path:url(#ac);}.d{fill:#d4e3f9;}.e{opacity:0.46;}.aa,.ab,.ac,.ad,.ae,.af,.ag,.ah,.ai,.aj,.ak,.al,.am,.an,.ao,.ap,.aq,.ar,.as,.at,.au,.av,.aw,.ax,.ay,.az,.ba,.bb,.bc,.bd,.be,.bf,.bg,.bh,.bi,.bj,.bk,.bl,.bm,.bn,.bo,.bp,.bq,.br,.bs,.bt,.bu,.bv,.bw,.bx,.by,.bz,.ca,.cb,.cc,.cd,.ce,.cf,.cg,.ch,.ci,.cj,.ck,.cl,.cm,.cn,.co,.cp,.cq,.cr,.cs,.ct,.cu,.cv,.cw,.cx,.cy,.cz,.da,.db,.dc,.dd,.de,.df,.dg,.dh,.di,.dj,.dk,.dl,.dm,.dn,.do,.dp,.dq,.dr,.ds,.dt,.du,.dv,.dw,.dx,.dy,.dz,.e,.ea,.eb,.ec,.ed,.ee,.ef,.eg,.eh,.ei,.ej,.ek,.el,.em,.en,.eo,.ep,.eq,.er,.es,.et,.eu,.ev,.ew,.ex,.ey,.ez,.fa,.fb,.fc,.fd,.fe,.ff,.fg,.fh,.fi,.fj,.fk,.fl,.fm,.fn,.fo,.fp,.fq,.fr,.fs,.ft,.fu,.fv,.fw,.fx,.fy,.fz,.ga,.gb,.gc,.gd,.ge,.gf,.gg,.gh,.gi,.gj,.gk,.gl,.gm,.gn,.go,.gp,.gq,.gr,.gs,.gt,.gu,.gv,.gx,.hp,.hu,.o,.p,.q,.r,.s,.t,.u,.v,.w,.x,.y,.z{mix-blend-mode:multiply;}.aa,.ab,.ac,.ad,.ae,.af,.ag,.ah,.ai,.aj,.ak,.al,.am,.an,.ao,.ap,.aq,.ar,.as,.at,.au,.av,.aw,.ax,.ay,.az,.ba,.bb,.bc,.bd,.be,.bf,.bg,.bh,.bi,.bj,.bk,.bl,.bm,.bn,.bo,.bp,.bq,.br,.bs,.bt,.bu,.bv,.bw,.bx,.by,.bz,.ca,.cb,.cc,.cd,.ce,.cf,.cg,.ch,.ci,.cj,.ck,.cl,.cm,.cn,.co,.cp,.cq,.cr,.cs,.ct,.cu,.cv,.cw,.cx,.cy,.cz,.da,.db,.dc,.dd,.de,.df,.dg,.dh,.di,.dj,.dk,.dl,.dm,.dn,.do,.dp,.dq,.dr,.ds,.dt,.du,.dv,.dw,.dx,.dy,.dz,.e,.ea,.eb,.ec,.ed,.ee,.ef,.eg,.eh,.ei,.ej,.ek,.el,.em,.en,.eo,.ep,.eq,.er,.es,.et,.eu,.ev,.ew,.ex,.ey,.ez,.fa,.fb,.fc,.fd,.fe,.ff,.fg,.fh,.fi,.fj,.fk,.fl,.fm,.fn,.fo,.fp,.fq,.fr,.fs,.ft,.fu,.fv,.fw,.fx,.fy,.fz,.ga,.gb,.gc,.gd,.ge,.gf,.gg,.gh,.gi,.gj,.gk,.gl,.gm,.gn,.go,.gp,.gq,.gr,.gs,.gt,.gu,.gv,.gx,.hm,.hp,.hu,.o,.p,.q,.r,.s,.t,.u,.v,.w,.x,.y,.z{isolation:isolate;}.f,.hp,.hu,.j{fill:#f9583a;}.h{font-size:45px;}.h,.ha,.hd,.hj,.hl,.i,.m{font-family:SegoeUI, Segoe UI;}.hq,.i,.j{font-size:46px;}.hk,.hq,.j{font-family:SegoeUI-Bold, Segoe UI;font-weight:700;}.k{stroke:#000;stroke-miterlimit:10;stroke-width:2px;}.l{fill:#d6d3d3;}.ha,.he,.hg,.m{fill:#a4a2a2;}.hf,.m{font-size:18px;}.n{opacity:0.61;}.o{opacity:0.4;}.p{opacity:0;}.q{fill:#fefefe;opacity:0.005;}.r{fill:#fdfdfd;opacity:0.011;}.s{fill:#fcfcfc;opacity:0.016;}.t{fill:#fbfbfb;opacity:0.021;}.u{fill:#fafafa;opacity:0.027;}.v{fill:#f9f9f9;opacity:0.032;}.w{fill:#f8f8f8;opacity:0.037;}.x{fill:#f7f7f7;opacity:0.043;}.y{fill:#f6f6f6;opacity:0.048;}.z{fill:#f5f5f5;opacity:0.053;}.aa{fill:#f4f4f4;opacity:0.059;}.ab{fill:#f3f3f3;opacity:0.064;}.ac{fill:#f2f2f2;opacity:0.07;}.ad{fill:#f1f1f1;opacity:0.075;}.ae{fill:#f0f0f0;opacity:0.08;}.af{fill:#efefef;opacity:0.086;}.ag{fill:#eee;opacity:0.091;}.ah{fill:#ededed;opacity:0.096;}.ai{fill:#ececec;opacity:0.102;}.aj{fill:#ebebeb;opacity:0.107;}.ak{fill:#eaeaea;opacity:0.112;}.al{fill:#e9e9e9;opacity:0.118;}.am{fill:#e8e8e8;opacity:0.123;}.an{fill:#e7e7e7;opacity:0.128;}.ao{fill:#e6e6e6;opacity:0.134;}.ap{fill:#e5e5e5;opacity:0.139;}.aq{fill:#e4e4e4;opacity:0.144;}.ar{fill:#e3e3e3;opacity:0.15;}.as{fill:#e2e2e2;opacity:0.155;}.at{fill:#e1e1e1;opacity:0.16;}.au{fill:#e0e0e0;opacity:0.166;}.av{fill:#dfdfdf;opacity:0.171;}.aw{fill:#dedede;opacity:0.176;}.ax{fill:#ddd;opacity:0.182;}.ay{fill:#dcdcdc;opacity:0.187;}.az{fill:#dbdbdb;opacity:0.193;}.ba{fill:#dadada;opacity:0.198;}.bb{fill:#d9d9d9;opacity:0.203;}.bc{fill:#d8d8d8;opacity:0.209;}.bd{fill:#d7d7d7;opacity:0.214;}.be{fill:#d6d6d6;opacity:0.219;}.bf{fill:#d5d5d5;opacity:0.225;}.bg{fill:#d4d4d4;opacity:0.23;}.bh{fill:#d3d3d3;opacity:0.235;}.bi{fill:#d2d2d2;opacity:0.241;}.bj{fill:#d1d1d1;opacity:0.246;}.bk{fill:#d0d0d0;opacity:0.251;}.bl{fill:#cfcfcf;opacity:0.257;}.bm{fill:#cecece;opacity:0.262;}.bn{fill:#cdcdcd;opacity:0.267;}.bo{fill:#ccc;opacity:0.273;}.bp{fill:#cbcbcb;opacity:0.278;}.bq{fill:#cacaca;opacity:0.283;}.br{fill:#c9c9c9;opacity:0.289;}.bs{fill:#c8c8c8;opacity:0.294;}.bt{fill:#c7c7c7;opacity:0.299;}.bu{fill:#c6c6c6;opacity:0.305;}.bv{fill:#c5c5c5;opacity:0.31;}.bw{fill:#c4c4c4;opacity:0.316;}.bx{fill:#c3c3c3;opacity:0.321;}.by{fill:#c2c2c2;opacity:0.326;}.bz{fill:#c1c1c1;opacity:0.332;}.ca{fill:silver;opacity:0.337;}.cb{fill:#bfbfbf;opacity:0.342;}.cc{fill:#bebebe;opacity:0.348;}.cd{fill:#bdbdbd;opacity:0.353;}.ce{fill:#bcbcbc;opacity:0.358;}.cf{fill:#bbb;opacity:0.364;}.cg{fill:#bababa;opacity:0.369;}.ch{fill:#b9b9b9;opacity:0.374;}.ci{fill:#b8b8b8;opacity:0.38;}.cj{fill:#b7b7b7;opacity:0.385;}.ck{fill:#b6b6b6;opacity:0.39;}.cl{fill:#b5b5b5;opacity:0.396;}.cm{fill:#b4b4b4;opacity:0.401;}.cn{fill:#b3b3b3;opacity:0.406;}.co{fill:#b2b2b2;opacity:0.412;}.cp{fill:#b1b1b1;opacity:0.417;}.cq{fill:#b0b0b0;opacity:0.422;}.cr{fill:#afafaf;opacity:0.428;}.cs{fill:#aeaeae;opacity:0.433;}.ct{fill:#adadad;opacity:0.439;}.cu{fill:#acacac;opacity:0.444;}.cv{fill:#ababab;opacity:0.449;}.cw{fill:#aaa;opacity:0.455;}.cx{fill:#a9a9a9;opacity:0.46;}.cy{fill:#a8a8a8;opacity:0.465;}.cz{fill:#a7a7a7;opacity:0.471;}.da{fill:#a6a6a6;opacity:0.476;}.db{fill:#a5a5a5;opacity:0.481;}.dc{fill:#a4a4a4;opacity:0.487;}.dd{fill:#a3a3a3;opacity:0.492;}.de{fill:#a2a2a2;opacity:0.497;}.df{fill:#a1a1a1;opacity:0.503;}.dg{fill:#a0a0a0;opacity:0.508;}.dh{fill:#9f9f9f;opacity:0.513;}.di{fill:#9e9e9e;opacity:0.519;}.dj{fill:#9d9d9d;opacity:0.524;}.dk{fill:#9c9c9c;opacity:0.529;}.dl{fill:#9b9b9b;opacity:0.535;}.dm{fill:#9a9a9a;opacity:0.54;}.dn{fill:#999;opacity:0.545;}.do{fill:#989898;opacity:0.551;}.dp{fill:#979797;opacity:0.556;}.dq{fill:#969696;opacity:0.561;}.dr{fill:#959595;opacity:0.567;}.ds{fill:#949494;opacity:0.572;}.dt{fill:#939393;opacity:0.578;}.du{fill:#929292;opacity:0.583;}.dv{fill:#919191;opacity:0.588;}.dw{fill:#909090;opacity:0.594;}.dx{fill:#8f8f8f;opacity:0.599;}.dy{fill:#8e8e8e;opacity:0.604;}.dz{fill:#8d8d8d;opacity:0.61;}.ea{fill:#8c8c8c;opacity:0.615;}.eb{fill:#8b8b8b;opacity:0.62;}.ec{fill:#8a8a8a;opacity:0.626;}.ed{fill:#898989;opacity:0.631;}.ee{fill:#888;opacity:0.636;}.ef{fill:#878787;opacity:0.642;}.eg{fill:#868686;opacity:0.647;}.eh{fill:#858585;opacity:0.652;}.ei{fill:#848484;opacity:0.658;}.ej{fill:#838383;opacity:0.663;}.ek{fill:#828282;opacity:0.668;}.el{fill:#818181;opacity:0.674;}.em{fill:gray;opacity:0.679;}.en{fill:#7f7f7f;opacity:0.684;}.eo{fill:#7e7e7e;opacity:0.69;}.ep{fill:#7d7d7d;opacity:0.695;}.eq{fill:#7c7c7c;opacity:0.701;}.er{fill:#7b7b7b;opacity:0.706;}.es{fill:#7a7a7a;opacity:0.711;}.et{fill:#797979;opacity:0.717;}.eu{fill:#787878;opacity:0.722;}.ev{fill:#777;opacity:0.727;}.ew{fill:#767676;opacity:0.733;}.ex{fill:#757575;opacity:0.738;}.ey{fill:#747474;opacity:0.743;}.ez{fill:#737373;opacity:0.749;}.fa{fill:#727272;opacity:0.754;}.fb{fill:#717171;opacity:0.759;}.fc{fill:#707070;opacity:0.765;}.fd{fill:#6f6f6f;opacity:0.77;}.fe{fill:#6e6e6e;opacity:0.775;}.ff{fill:#6d6d6d;opacity:0.781;}.fg{fill:#6c6c6c;opacity:0.786;}.fh{fill:#6b6b6b;opacity:0.791;}.fi{fill:#6a6a6a;opacity:0.797;}.fj{fill:#696969;opacity:0.802;}.fk{fill:#686868;opacity:0.807;}.fl{fill:#676767;opacity:0.813;}.fm{fill:#666;opacity:0.818;}.fn{fill:#656565;opacity:0.824;}.fo{fill:#646464;opacity:0.829;}.fp{fill:#636363;opacity:0.834;}.fq{fill:#626262;opacity:0.84;}.fr{fill:#616161;opacity:0.845;}.fs{fill:#606060;opacity:0.85;}.ft{fill:#5f5f5f;opacity:0.856;}.fu{fill:#5e5e5e;opacity:0.861;}.fv{fill:#5d5d5d;opacity:0.866;}.fw{fill:#5c5c5c;opacity:0.872;}.fx{fill:#5b5b5b;opacity:0.877;}.fy{fill:#5a5a5a;opacity:0.882;}.fz{fill:#595959;opacity:0.888;}.ga{fill:#585858;opacity:0.893;}.gb{fill:#575757;opacity:0.898;}.gc{fill:#565656;opacity:0.904;}.gd{fill:#555;opacity:0.909;}.ge{fill:#545454;opacity:0.914;}.gf{fill:#535353;opacity:0.92;}.gg{fill:#525252;opacity:0.925;}.gh{fill:#515151;opacity:0.93;}.gi{fill:#505050;opacity:0.936;}.gj{fill:#4f4f4f;opacity:0.941;}.gk{fill:#4e4e4e;opacity:0.947;}.gl{fill:#4d4d4d;opacity:0.952;}.gm{fill:#4c4c4c;opacity:0.957;}.gn{fill:#4b4b4b;opacity:0.963;}.go{fill:#4a4a4a;opacity:0.968;}.gp{fill:#494949;opacity:0.973;}.gq{fill:#484848;opacity:0.979;}.gr{fill:#474747;opacity:0.984;}.gs{fill:#464646;opacity:0.989;}.gt{fill:#454545;opacity:0.995;}.gu{fill:#444;}.gv,.gx{opacity:0.8;}.gv{fill:url(#k);}.gw{fill:url(#l);}.gx{fill:url(#m);}.gy{fill-rule:evenodd;}.gz{fill:url(#q);}.ha{font-size:23px;}.hb{stroke:#959896;opacity:0.5;}.hc{fill:#a5a3a3;}.hd{fill:#878181;}.hd,.he{font-size:25px;}.he,.hg{font-family:Roboto-Regular, Roboto;}.hf{font-family:Roboto-Light, Roboto;font-weight:300;}.hg{font-size:15px;}.hh{fill:url(#r);}.hi{fill:#3fd077;}.hj{font-size:8px;}.hk{font-size:103px;}.hl{font-size:34px;}.hn{clip-path:url(#u);}.ho{clip-path:url(#v);}.hp,.hu{opacity:0.31;}.hr{clip-path:url(#w);}.hs{clip-path:url(#x);}.ht{clip-path:url(#y);}.hv{clip-path:url(#z);}.hw{clip-path:url(#aa);}.hx{stroke:none;}.hy{filter:url(#s);}.hz{filter:url(#i);}.ia{filter:url(#g);}.ib{filter:url(#e);}.ic{filter:url(#c);}.id{filter:url(#a);}</style>
    <filter
       id="a"
       x="94"
       y="165"
       width="262"
       height="93"
       filterUnits="userSpaceOnUse">
      <feOffset
         dy="3"
         input="SourceAlpha"
         id="feOffset4" />
      <feGaussianBlur
         stdDeviation="5"
         result="b"
         id="feGaussianBlur6" />
      <feFlood
         flood-color="#fff"
         flood-opacity="0.161"
         id="feFlood8" />
      <feComposite
         operator="in"
         in2="b"
         id="feComposite10"
         result="result1" />
      <feComposite
         in="SourceGraphic"
         in2="result1"
         id="feComposite12" />
    </filter>
    <filter
       id="c"
       x="449"
       y="165"
       width="262"
       height="93"
       filterUnits="userSpaceOnUse">
      <feOffset
         dy="3"
         input="SourceAlpha"
         id="feOffset15" />
      <feGaussianBlur
         stdDeviation="5"
         result="d"
         id="feGaussianBlur17" />
      <feFlood
         flood-color="#fff"
         flood-opacity="0.161"
         id="feFlood19" />
      <feComposite
         operator="in"
         in2="d"
         id="feComposite21"
         result="result1" />
      <feComposite
         in="SourceGraphic"
         in2="result1"
         id="feComposite23" />
    </filter>
    <filter
       id="e"
       x="804"
       y="165"
       width="262"
       height="93"
       filterUnits="userSpaceOnUse">
      <feOffset
         dy="3"
         input="SourceAlpha"
         id="feOffset26" />
      <feGaussianBlur
         stdDeviation="5"
         result="f"
         id="feGaussianBlur28" />
      <feFlood
         flood-color="#fff"
         flood-opacity="0.161"
         id="feFlood30" />
      <feComposite
         operator="in"
         in2="f"
         id="feComposite32"
         result="result1" />
      <feComposite
         in="SourceGraphic"
         in2="result1"
         id="feComposite34" />
    </filter>
    <filter
       id="g"
       x="1158"
       y="165"
       width="306"
       height="93"
       filterUnits="userSpaceOnUse">
      <feOffset
         dy="3"
         input="SourceAlpha"
         id="feOffset37" />
      <feGaussianBlur
         stdDeviation="5"
         result="h"
         id="feGaussianBlur39" />
      <feFlood
         flood-color="#fff"
         flood-opacity="0.161"
         id="feFlood41" />
      <feComposite
         operator="in"
         in2="h"
         id="feComposite43"
         result="result1" />
      <feComposite
         in="SourceGraphic"
         in2="result1"
         id="feComposite45" />
    </filter>
    <filter
       id="i"
       x="1557"
       y="165"
       width="306"
       height="93"
       filterUnits="userSpaceOnUse">
      <feOffset
         dy="3"
         input="SourceAlpha"
         id="feOffset48" />
      <feGaussianBlur
         stdDeviation="5"
         result="j"
         id="feGaussianBlur50" />
      <feFlood
         flood-color="#fff"
         flood-opacity="0.161"
         id="feFlood52" />
      <feComposite
         operator="in"
         in2="j"
         id="feComposite54"
         result="result1" />
      <feComposite
         in="SourceGraphic"
         in2="result1"
         id="feComposite56" />
    </filter>
    <radialGradient
       id="k"
       cx="0.5"
       cy="0.5"
       r="0.5"
       gradientUnits="objectBoundingBox">
      <stop
         offset="0"
         id="stop59" />
      <stop
         offset="0.859"
         stop-color="#777"
         stop-opacity="0.533"
         id="stop61" />
      <stop
         offset="1"
         stop-color="#fff"
         stop-opacity="0"
         id="stop63" />
    </radialGradient>
    <linearGradient
       id="l"
       x1="0.146"
       y1="0.146"
       x2="0.85399997"
       y2="0.85399997"
       gradientUnits="objectBoundingBox">
      <stop
         offset="0"
         stop-color="#c7c7c7"
         id="stop66" />
      <stop
         offset="0.759"
         stop-color="gray"
         id="stop68" />
      <stop
         offset="1"
         stop-color="#696969"
         id="stop70" />
    </linearGradient>
    <radialGradient
       id="m"
       cx="0.5"
       cy="0.5"
       r="0.5"
       xlink:href="#k" />
    <pattern
       id="q"
       preserveAspectRatio="none"
       width="100%"
       height="100%"
       viewBox="0 0 300 190">
      <image
         sodipodi:absref="C:\Users\jose zambrano\Documents\documentos SUMER\programacion\pruebaTrabajo\trabajo takiven\adjuntos\Web 1920 - 2-image2.png"
         xlink:href="../../../adjuntos/Web%201920%20-%202-image2.png"
         width="300"
         height="190"
         id="image74" />
    </pattern>
    <pattern
       id="r"
       preserveAspectRatio="none"
       width="100%"
       height="100%"
       viewBox="0 0 3840 2160">
      <image
         sodipodi:absref="C:\Users\jose zambrano\Documents\documentos SUMER\programacion\pruebaTrabajo\trabajo takiven\adjuntos\Web 1920 - 2-image4.png"
         xlink:href="../../../adjuntos/Web%201920%20-%202-image4.png"
         width="3840"
         height="2160"
         id="image77" />
    </pattern>
    <filter
       id="s"
       x="479"
       y="2575"
       width="1191"
       height="155"
       filterUnits="userSpaceOnUse">
      <feOffset
         dy="3"
         input="SourceAlpha"
         id="feOffset80" />
      <feGaussianBlur
         stdDeviation="3"
         result="t"
         id="feGaussianBlur82" />
      <feFlood
         flood-opacity="0.161"
         id="feFlood84" />
      <feComposite
         operator="in"
         in2="t"
         id="feComposite86"
         result="result1" />
      <feComposite
         in="SourceGraphic"
         in2="result1"
         id="feComposite88" />
    </filter>
    <clipPath
       id="u">
      <rect
         class="a"
         width="762"
         height="442"
         transform="translate(154,1492)"
         id="rect91"
         x="0"
         y="0" />
    </clipPath>
    <clipPath
       id="v">
      <rect
         class="b"
         width="822.198"
         height="626.58197"
         id="rect94"
         x="0"
         y="0" />
    </clipPath>
    <clipPath
       id="w">
      <rect
         class="a"
         width="758"
         height="442"
         transform="translate(979,1492)"
         id="rect97"
         x="0"
         y="0" />
    </clipPath>
    <clipPath
       id="x">
      <rect
         class="b"
         width="809.591"
         height="514.35498"
         id="rect100"
         x="0"
         y="0" />
    </clipPath>
    <clipPath
       id="y">
      <rect
         class="a"
         width="460"
         height="442"
         transform="translate(154,1990)"
         id="rect103"
         x="0"
         y="0" />
    </clipPath>
    <clipPath
       id="z">
      <rect
         class="a"
         width="460"
         height="442"
         transform="translate(723,1990)"
         id="rect106"
         x="0"
         y="0" />
    </clipPath>
    <clipPath
       id="aa">
      <rect
         class="a"
         width="460"
         height="442"
         transform="translate(1277,1956)"
         id="rect109"
         x="0"
         y="0" />
    </clipPath>
    <clipPath
       id="ac">
      <rect
         width="1920"
         height="3813"
         id="rect112"
         x="0"
         y="0" />
    </clipPath>
  </defs>
  <g
     inkscape:groupmode="layer"
     id="layer2"
     inkscape:label="elegirnos3"
     style="display:inline"
     transform="translate(-1414.0633,-2758.6359)">
    <g
       transform="translate(1014.785,2585.847)"
       id="g5451">
      <path
         class="g"
         d="m 589.868,249.048 q -9.931,15.941 -19.854,31.888 a 11.676,11.676 0 0 1 -2.577,2.906 q -20.694,16.907 -41.351,33.86 a 8.029,8.029 0 0 1 -5.429,1.924 q -25.423,-0.039 -50.847,0.018 c -1.227,0 -5.049,2.812 -5.3,3.878 -0.132,0.566 0.359,0.743 0.63,1.025 1.292,1.34 2.649,2.619 3.924,3.977 1.993,2.124 2.021,4.131 -0.043,6.214 q -9.5,9.594 -19.1,19.1 c -1.847,1.832 -4.227,1.933 -5.8,0.391 -1.636,-1.6 -1.543,-4.007 0.374,-5.947 q 7.593,-7.683 15.289,-15.265 c 1.046,-1.024 1.246,-1.572 0.081,-2.731 Q 439.979,310.53 420.227,290.64 c -0.97,-0.976 -1.486,-1.037 -2.471,-0.02 -3.668,3.793 -7.445,7.481 -11.166,11.223 a 4.849,4.849 0 0 1 -3.713,1.832 3.825,3.825 0 0 1 -3.078,-5.745 8.744,8.744 0 0 1 1.411,-1.717 q 7.03,-7.063 14.088,-14.1 c 2.771,-2.764 4.621,-2.749 7.424,0.053 q 17.322,17.315 34.614,34.661 c 1.071,1.079 1.625,1.159 2.747,0.037 5.716,-5.715 3.669,-5.058 12.249,-5.068 q 23.374,-0.028 46.75,0.015 a 4.662,4.662 0 0 0 3.208,-1.094 q 19.859,-16.31 39.779,-32.546 a 7.8,7.8 0 0 0 1.708,-1.942 q 7.975,-12.792 15.972,-25.572 c 1,-1.6 0.835,-2.089 -1.055,-2.373 a 11.352,11.352 0 0 0 -8.324,1.88 44.391,44.391 0 0 0 -7.75,6.946 49.768,49.768 0 0 1 -13.57,10.574 c -2.3,1.216 -4.423,2.769 -6.731,3.965 -1.5,0.775 -1.763,1.526 -1.218,3.155 2.655,7.947 -0.6,15.631 -8.043,19.4 a 16.49,16.49 0 0 1 -7.582,1.548 q -16.576,0.026 -33.153,0.008 c -4.137,-0.007 -5.09,0.7 -6.016,4.7 a 3.818,3.818 0 0 1 -4.119,3.2 3.875,3.875 0 0 1 -3.425,-4.158 c 0.055,-6.682 5.417,-11.519 12.9,-11.542 11.113,-0.033 22.226,-0.007 33.339,-0.012 a 11.376,11.376 0 0 0 4.039,-0.479 8.077,8.077 0 0 0 5.233,-8.176 c -0.437,-3.92 -3.259,-6.98 -7.076,-7.2 -4.147,-0.237 -8.312,-0.156 -12.47,-0.17 -6.519,-0.022 -13.041,-0.111 -19.556,0.035 a 25.2,25.2 0 0 1 -10.538,-1.769 29.4,29.4 0 0 0 -13.233,-2.251 c -4.023,0.222 -8.069,0.085 -12.1,0.052 a 24.368,24.368 0 0 0 -18.67,7.753 39.147,39.147 0 0 1 -3.062,2.992 3.829,3.829 0 0 1 -5.383,-0.024 3.908,3.908 0 0 1 -0.071,-5.4 c 5.455,-6.192 11.821,-10.942 20.157,-12.52 a 39.391,39.391 0 0 1 8.709,-0.566 c 1.429,0.049 2,-0.379 1.955,-1.886 -0.089,-3.1 -0.092,-6.21 0.006,-9.311 0.214,-6.716 3.032,-12.177 8.663,-15.814 5.2,-3.361 10.7,-6.269 16.063,-9.38 a 6.183,6.183 0 0 0 3.048,-7.095 2.223,2.223 0 0 0 -0.8,-1.215 18.516,18.516 0 0 1 -7.066,-13.627 c -0.26,-4.762 -0.588,-9.56 0.568,-14.263 2.141,-8.707 10.719,-15.2 19.5,-14.83 9.524,0.4 17.8,7.426 18.9,16.657 a 51.335,51.335 0 0 1 -0.209,15.4 17.965,17.965 0 0 1 -5.665,9.838 5.448,5.448 0 0 0 0.972,8.969 c 4.881,2.833 9.8,5.6 14.7,8.405 a 20.018,20.018 0 0 1 8.529,9.071 22.333,22.333 0 0 1 1.907,10.7 4,4 0 0 1 -3.955,4.088 c -2.182,-0.09 -3.746,-1.773 -3.611,-4.345 0.349,-6.616 -2.606,-11.048 -8.427,-14 -4.363,-2.215 -8.507,-4.858 -12.789,-7.24 a 11.968,11.968 0 0 1 -6.514,-8.982 c -0.172,-1.135 -0.584,-1.682 -1.793,-1.4 a 12.734,12.734 0 0 1 -5.177,-0.036 c -0.889,-0.155 -1.527,-0.043 -1.649,1.131 -0.449,4.3 -2.832,7.266 -6.543,9.336 -4.713,2.627 -9.355,5.381 -14.075,7.994 -4.8,2.659 -7.208,6.6 -7,12.144 0.1,2.728 0.063,5.464 0,8.194 -0.026,1.143 0.384,1.614 1.505,1.476 6.071,-0.75 11.62,1.234 17.155,3.28 a 9.728,9.728 0 0 0 3.451,0.615 q 16.2,-0.035 32.409,0 a 16.392,16.392 0 0 1 8.922,2.133 2.151,2.151 0 0 0 2.555,-0.107 q 7.151,-4.356 14.357,-8.621 a 13.4,13.4 0 0 0 2.378,-2.069 c 4.369,-4.218 8.327,-8.9 13.534,-12.18 5.768,-3.638 14.37,-4.482 20.451,0.9 a 16.1,16.1 0 0 1 2.636,3.033 z m -99.554,-52.591 a 38.819,38.819 0 0 0 0.353,6.491 12.208,12.208 0 0 0 11.878,9.651 c 5.625,-0.081 10.967,-4.454 11.734,-9.834 a 47.187,47.187 0 0 0 0.1,-11.5 12.021,12.021 0 0 0 -22.388,-4.748 c -1.803,3.121 -1.735,6.521 -1.677,9.94 z"
         id="path5449" />
    </g>
  </g>
</svg>
