<?xml version="1.0" encoding="UTF-8" standalone="no"?>
<svg
   xmlns:dc="http://purl.org/dc/elements/1.1/"
   xmlns:cc="http://creativecommons.org/ns#"
   xmlns:rdf="http://www.w3.org/1999/02/22-rdf-syntax-ns#"
   xmlns:svg="http://www.w3.org/2000/svg"
   xmlns="http://www.w3.org/2000/svg"
   xmlns:sodipodi="http://sodipodi.sourceforge.net/DTD/sodipodi-0.dtd"
   xmlns:inkscape="http://www.inkscape.org/namespaces/inkscape"
   width="392.32199"
   height="264.28"
   viewBox="0 0 392.32199 264.28"
   version="1.1"
   id="svg2042"
   sodipodi:docname="logo1.svg"
   inkscape:version="1.0.1 (3bc2e813f5, 2020-09-07)"
   shape-rendering="crispEdges">
  <style
     id="style3064" />
  <metadata
     id="metadata2046">
    <rdf:RDF>
      <cc:Work
         rdf:about="">
        <dc:format>image/svg+xml</dc:format>
        <dc:type
           rdf:resource="http://purl.org/dc/dcmitype/StillImage" />
        <dc:title></dc:title>
      </cc:Work>
    </rdf:RDF>
  </metadata>
  <sodipodi:namedview
     pagecolor="#ffffff"
     bordercolor="#666666"
     borderopacity="1"
     objecttolerance="10"
     gridtolerance="10"
     guidetolerance="10"
     inkscape:pageopacity="0"
     inkscape:pageshadow="2"
     inkscape:window-width="640"
     inkscape:window-height="480"
     id="namedview2044"
     showgrid="false"
     inkscape:zoom="1.9486908"
     inkscape:cx="196.161"
     inkscape:cy="127.86578"
     inkscape:current-layer="layer2"
     inkscape:document-rotation="0"
     showborder="true"
     inkscape:pagecheckerboard="false"
     fit-margin-top="0"
     fit-margin-left="0"
     fit-margin-right="0"
     fit-margin-bottom="0" />
  <defs
     id="defs7">
    <style
       id="style2">.a{clip-path:url(#b);}.b{fill:#d4e3f9;}.c{fill:#f9583a;}.d{fill:#fff;}.e{stroke:#000;stroke-miterlimit:10;stroke-width:2px;}.f{font-size:34px;font-family:SegoeUI, Segoe UI;}</style>
    <clipPath
       id="b">
      <rect
         width="1920"
         height="1080"
         id="rect4"
         x="0"
         y="0" />
    </clipPath>
  </defs>
  <g
     inkscape:groupmode="layer"
     id="layer2"
     inkscape:label="logo1"
     style="display:inline"
     transform="translate(-763.851,0.001)">
    <g
       transform="translate(633.521,-25.521)"
       id="g1945"
       style="image-rendering:auto">
      <path
         class="c"
         d="M 522.652,289.8 330.025,217.254 130.33,289.8 V 25.52 h 392.322 z"
         id="path1933" />
      <g
         transform="translate(263.523,51.886)"
         id="g1939">
        <path
           class="d"
           d="m 157.021,34.462 c -1.583,0.636 -4.357,10.13 3.343,8.815 5.903,-1.009 4.501,-11.977 -3.343,-8.815 z"
           transform="translate(-96.829,-20.217)"
           id="path1935" />
        <path
           class="d"
           d="m 267.511,81.3 c -0.641,-7.557 -2.128,-15.224 -6,-21.748 a 44.7,44.7 0 0 0 -8.265,-9.863 70,70 0 0 0 -84.267,-8.275 C 154.594,50.175 141.747,66.1 143.1,83.628 c 1.507,19.481 8.141,37.8 28.119,46.123 5.749,2.4 12.044,3.157 18.262,3.477 17.865,0.947 45.769,0.507 65.039,-11.761 12.08,-7.682 14.197,-25.906 12.991,-40.167 z m -13.5,16.257 a 1.339,1.339 0 0 1 -1.516,0.55 c -1.913,-0.732 -2.611,-2.655 -2.9,-4.635 -13.6,36.5 -76.16,35.021 -87.476,0.727 -0.722,-0.387 -1.559,4.042 -4.419,5.352 a 0.624,0.624 0 0 1 -0.875,-0.732 c 1,-3.86 -2.31,-20.16 -0.234,-22.619 a 0.48,0.48 0 0 1 0.454,-0.167 c 1.88,0.105 2.889,3.209 5.955,6.079 2.578,2.415 5.553,4.338 7.476,7.2 1.521,2.258 -0.78,5.826 -3.444,5.453 a 3.567,3.567 0 0 1 -0.364,-0.081 c 8.189,11.785 22.748,18.367 37.073,18.95 -0.722,-17.281 -2.3,-35.236 0.627,-52.36 a 11.587,11.587 0 0 1 -3.573,-1.2 10.917,10.917 0 0 1 -5.7,-11.4 c 0,-0.038 0.019,-0.1 0.024,-0.139 a 11.548,11.548 0 0 1 0.588,-2.473 c 0.038,-0.1 0.091,-0.167 0.129,-0.263 a 7.318,7.318 0 0 1 1.669,-2.851 c 5.151,-6.486 15.975,-6.294 19.285,2.6 2.9,7.806 -1.143,14.779 -8.581,14.88 3.865,16.879 1.239,35.868 1.464,53.115 16.114,-1.205 26.637,-10.092 35.079,-22.915 a 6.81,6.81 0 0 1 -5,-0.033 0.675,0.675 0 0 1 -0.354,-0.99 c 1.755,-2.148 4.1,-3.267 6.213,-5.032 2.162,-1.8 4.046,-3.654 6.677,-4.793 a 1.472,1.472 0 0 1 2.066,1.731 c -0.914,2.788 -0.588,6.7 -0.239,9.576 0.258,2.15 1.243,4.57 -0.106,6.469 z"
           transform="translate(-143.002,-31.033)"
           id="path1937" />
      </g>
      <g
         transform="translate(153.958,30.66)"
         id="g1943">
        <path
           class="d"
           d="m 142.106,233.355 -6.836,-2.167 v -4.754 c 0,-1.421 1.989,-2.568 4.45,-2.568 2.444,0 4.441,1.148 4.441,2.568 v 2.234 a 3.5,3.5 0 0 1 0.862,0.569 c 1.317,1.2 0.7,2.784 -1.367,3.549 z m 330.821,-0.507 a 7.164,7.164 0 0 1 -2.246,-0.349 l -8.717,-2.946 c -2.121,-0.713 -2.834,-2.286 -1.591,-3.511 1.243,-1.225 3.969,-1.636 6.082,-0.918 l 8.717,2.942 c 2.121,0.713 2.834,2.286 1.591,3.511 a 5.629,5.629 0 0 1 -3.836,1.271 z m -310.362,-7.476 a 5.8,5.8 0 0 1 -3.77,-1.191 c -1.318,-1.2 -0.7,-2.784 1.367,-3.544 l 8.527,-3.123 c 2.072,-0.761 4.823,-0.4 6.14,0.789 1.317,1.189 0.7,2.784 -1.376,3.544 l -8.51,3.123 a 6.947,6.947 0 0 1 -2.378,0.402 z m 279.869,-2.817 a 7.1,7.1 0 0 1 -2.246,-0.349 l -8.7,-2.937 c -2.121,-0.722 -2.834,-2.3 -1.6,-3.516 1.251,-1.224 3.961,-1.641 6.09,-0.923 l 8.7,2.942 c 2.121,0.717 2.834,2.291 1.6,3.516 a 5.65,5.65 0 0 1 -3.844,1.267 z m 33.195,-1.55 c -2.461,0 -4.45,-1.148 -4.45,-2.568 v -5.826 c 0,-1.416 1.989,-2.568 4.45,-2.568 2.461,0 4.45,1.153 4.45,2.568 v 5.826 c -0.001,1.42 -1.989,2.568 -4.45,2.568 z M 139.72,214.438 c -2.461,0 -4.45,-1.148 -4.45,-2.568 v -5.826 c 0,-1.416 1.989,-2.564 4.45,-2.564 2.444,0 4.441,1.148 4.441,2.564 v 5.826 c 0,1.42 -1.997,2.568 -4.441,2.568 z m 52.634,0 a 5.74,5.74 0 0 1 -3.754,-1.191 c -1.326,-1.2 -0.713,-2.784 1.367,-3.544 l 8.51,-3.123 c 2.072,-0.761 4.823,-0.4 6.148,0.789 1.325,1.189 0.7,2.784 -1.367,3.544 l -8.527,3.123 a 6.913,6.913 0 0 1 -2.377,0.397 z m 219.595,-2.167 a 7.051,7.051 0 0 1 -2.237,-0.349 L 401,208.981 c -2.121,-0.722 -2.834,-2.3 -1.6,-3.52 1.234,-1.22 3.961,-1.636 6.09,-0.918 l 8.709,2.942 c 2.113,0.717 2.825,2.291 1.591,3.511 a 5.637,5.637 0 0 1 -3.841,1.271 z m -189.8,-8.772 A 5.74,5.74 0 0 1 218.4,202.3 c -1.318,-1.2 -0.713,-2.784 1.367,-3.539 l 8.51,-3.123 c 2.072,-0.765 4.823,-0.411 6.14,0.784 1.317,1.195 0.713,2.788 -1.367,3.544 l -8.51,3.123 a 7.027,7.027 0 0 1 -2.388,0.406 z m 159.312,-1.511 a 7.156,7.156 0 0 1 -2.237,-0.354 l -8.709,-2.942 c -2.121,-0.713 -2.834,-2.286 -1.591,-3.511 1.243,-1.225 3.953,-1.641 6.082,-0.923 l 8.709,2.942 c 2.121,0.717 2.834,2.286 1.591,3.511 a 5.624,5.624 0 0 1 -3.843,1.272 z m 94.165,-1.358 c -2.461,0 -4.45,-1.153 -4.45,-2.573 v -5.821 c 0,-1.421 1.989,-2.568 4.45,-2.568 2.461,0 4.45,1.148 4.45,2.568 v 5.821 c 0.002,1.415 -1.986,2.568 -4.447,2.568 z M 139.72,194.053 c -2.461,0 -4.45,-1.148 -4.45,-2.564 v -5.826 c 0,-1.416 1.989,-2.568 4.45,-2.568 2.444,0 4.441,1.153 4.441,2.568 v 5.826 c 0,1.411 -1.997,2.564 -4.441,2.564 z m 112.237,-1.492 a 5.763,5.763 0 0 1 -3.762,-1.191 c -1.326,-1.2 -0.713,-2.784 1.359,-3.544 l 8.518,-3.128 c 2.088,-0.756 4.831,-0.407 6.14,0.789 1.326,1.2 0.713,2.788 -1.359,3.549 l -8.51,3.123 a 7.027,7.027 0 0 1 -2.386,0.402 z m 99.029,-0.87 a 7.032,7.032 0 0 1 -2.246,-0.354 l -8.709,-2.937 c -2.113,-0.722 -2.826,-2.291 -1.591,-3.511 1.235,-1.22 3.961,-1.636 6.082,-0.923 l 8.709,2.937 c 2.121,0.722 2.834,2.291 1.6,3.516 a 5.667,5.667 0 0 1 -3.845,1.271 z m -69.24,-10.068 a 5.755,5.755 0 0 1 -3.754,-1.191 c -1.317,-1.2 -0.713,-2.784 1.367,-3.544 l 8.5,-3.128 c 2.08,-0.756 4.839,-0.407 6.157,0.789 1.318,1.196 0.7,2.784 -1.367,3.549 l -8.518,3.123 a 6.994,6.994 0 0 1 -2.385,0.401 z M 320.5,181.4 a 7.166,7.166 0 0 1 -2.246,-0.349 l -8.7,-2.937 c -2.121,-0.722 -2.834,-2.291 -1.6,-3.516 1.234,-1.225 3.953,-1.641 6.09,-0.918 l 8.7,2.937 c 2.121,0.717 2.834,2.291 1.6,3.511 A 5.651,5.651 0 0 1 320.5,181.4 Z m 155.127,-1.158 c -2.461,0 -4.45,-1.153 -4.45,-2.568 v -5.826 c 0,-1.421 1.989,-2.568 4.45,-2.568 2.461,0 4.45,1.148 4.45,2.568 v 5.826 c 10e-4,1.413 -1.987,2.566 -4.448,2.566 z M 139.72,173.673 c -2.461,0 -4.45,-1.148 -4.45,-2.568 v -5.821 c 0,-1.421 1.989,-2.568 4.45,-2.568 2.444,0 4.441,1.148 4.441,2.568 v 5.816 c 0,1.425 -1.997,2.573 -4.441,2.573 z m 335.909,-13.818 c -2.461,0 -4.45,-1.148 -4.45,-2.568 v -5.827 c 0,-1.421 1.989,-2.568 4.45,-2.568 2.461,0 4.45,1.148 4.45,2.568 v 5.826 c -0.001,1.42 -1.989,2.568 -4.45,2.568 z M 139.72,153.292 c -2.461,0 -4.45,-1.148 -4.45,-2.568 V 144.9 c 0,-1.421 1.989,-2.568 4.45,-2.568 2.444,0 4.441,1.148 4.441,2.568 v 5.826 c 0,1.418 -1.997,2.566 -4.441,2.566 z m 335.909,-13.823 c -2.461,0 -4.45,-1.148 -4.45,-2.568 v -5.821 c 0,-1.421 1.989,-2.573 4.45,-2.573 2.461,0 4.45,1.153 4.45,2.573 v 5.82 c -0.001,1.421 -1.989,2.569 -4.45,2.569 z M 139.72,132.9 c -2.461,0 -4.45,-1.148 -4.45,-2.564 v -5.826 c 0,-1.421 1.989,-2.568 4.45,-2.568 2.444,0 4.441,1.148 4.441,2.568 v 5.826 c 0,1.418 -1.997,2.564 -4.441,2.564 z m 335.909,-13.813 c -2.461,0 -4.45,-1.153 -4.45,-2.573 v -5.821 c 0,-1.421 1.989,-2.564 4.45,-2.564 2.461,0 4.45,1.143 4.45,2.564 v 5.821 c -0.001,1.422 -1.989,2.575 -4.45,2.575 z M 139.72,112.522 c -2.461,0 -4.45,-1.148 -4.45,-2.568 v -5.821 c 0,-1.421 1.989,-2.568 4.45,-2.568 2.444,0 4.441,1.148 4.441,2.568 v 5.821 c 0,1.42 -1.997,2.568 -4.441,2.568 z M 475.629,98.7 c -2.461,0 -4.45,-1.148 -4.45,-2.568 v -5.823 c 0,-1.421 1.989,-2.568 4.45,-2.568 2.461,0 4.45,1.148 4.45,2.568 v 5.826 c -0.001,1.421 -1.989,2.565 -4.45,2.565 z M 139.72,92.141 c -2.461,0 -4.45,-1.148 -4.45,-2.568 v -5.826 c 0,-1.421 1.989,-2.568 4.45,-2.568 2.444,0 4.441,1.148 4.441,2.568 v 5.826 c 0,1.42 -1.997,2.568 -4.441,2.568 z M 475.629,78.318 c -2.461,0 -4.45,-1.148 -4.45,-2.568 v -5.821 c 0,-1.421 1.989,-2.568 4.45,-2.568 2.461,0 4.45,1.148 4.45,2.568 v 5.821 c -0.001,1.421 -1.989,2.568 -4.45,2.568 z M 139.72,71.756 c -2.461,0 -4.45,-1.148 -4.45,-2.568 v -5.826 c 0,-1.421 1.989,-2.564 4.45,-2.564 2.444,0 4.441,1.143 4.441,2.564 v 5.826 c 0,1.42 -1.997,2.568 -4.441,2.568 z M 475.629,57.938 c -2.461,0 -4.45,-1.148 -4.45,-2.568 v -5.826 c 0,-1.421 1.989,-2.568 4.45,-2.568 2.461,0 4.45,1.148 4.45,2.568 v 5.826 c -0.001,1.42 -1.989,2.568 -4.45,2.568 z M 139.72,51.371 c -2.461,0 -4.45,-1.148 -4.45,-2.568 v -5.826 c 0,-1.416 1.989,-2.568 4.45,-2.568 2.444,0 4.441,1.153 4.441,2.568 V 48.8 c 0,1.423 -1.997,2.571 -4.441,2.571 z M 475.629,37.553 c -2.461,0 -4.45,-1.153 -4.45,-2.568 v -5.822 c 0,-1.421 1.989,-2.568 4.45,-2.568 2.461,0 4.45,1.148 4.45,2.568 v 5.821 c -0.001,1.416 -1.989,2.569 -4.45,2.569 z"
           transform="translate(-135.27,-26.595)"
           id="path1941" />
      </g>
    </g>
  </g>
</svg>
