<?xml version="1.0" encoding="UTF-8" standalone="no"?>
<svg
   xmlns:dc="http://purl.org/dc/elements/1.1/"
   xmlns:cc="http://creativecommons.org/ns#"
   xmlns:rdf="http://www.w3.org/1999/02/22-rdf-syntax-ns#"
   xmlns:svg="http://www.w3.org/2000/svg"
   xmlns="http://www.w3.org/2000/svg"
   xmlns:sodipodi="http://sodipodi.sourceforge.net/DTD/sodipodi-0.dtd"
   xmlns:inkscape="http://www.inkscape.org/namespaces/inkscape"
   width="159.52499"
   height="214.35899"
   viewBox="0 0 159.52499 214.35899"
   version="1.1"
   id="svg2042"
   sodipodi:docname="logo3.svg"
   inkscape:version="1.0.1 (3bc2e813f5, 2020-09-07)">
  <style
     id="style3064" />
  <metadata
     id="metadata2046">
    <rdf:RDF>
      <cc:Work
         rdf:about="">
        <dc:format>image/svg+xml</dc:format>
        <dc:type
           rdf:resource="http://purl.org/dc/dcmitype/StillImage" />
        <dc:title></dc:title>
      </cc:Work>
    </rdf:RDF>
  </metadata>
  <sodipodi:namedview
     pagecolor="#ffffff"
     bordercolor="#666666"
     borderopacity="1"
     objecttolerance="10"
     gridtolerance="10"
     guidetolerance="10"
     inkscape:pageopacity="0"
     inkscape:pageshadow="2"
     inkscape:window-width="640"
     inkscape:window-height="480"
     id="namedview2044"
     showgrid="false"
     inkscape:zoom="0.49814815"
     inkscape:cx="79.989"
     inkscape:cy="-272.57787"
     inkscape:current-layer="layer4"
     inkscape:document-rotation="0"
     fit-margin-top="0"
     fit-margin-left="0"
     fit-margin-right="0"
     fit-margin-bottom="0" />
  <defs
     id="defs7">
    <style
       id="style2">.a{clip-path:url(#b);}.b{fill:#d4e3f9;}.c{fill:#f9583a;}.d{fill:#fff;}.e{stroke:#000;stroke-miterlimit:10;stroke-width:2px;}.f{font-size:34px;font-family:SegoeUI, Segoe UI;}</style>
    <clipPath
       id="b">
      <rect
         width="1920"
         height="1080"
         id="rect4"
         x="0"
         y="0" />
    </clipPath>
  </defs>
  <g
     inkscape:groupmode="layer"
     id="layer4"
     inkscape:label="logo3"
     style="display:inline"
     transform="translate(-880.011,-865.453)">
    <g
       transform="translate(749.681,512.941)"
       id="g1955">
      <path
         class="c"
         d="M 289.853,566.871 H 130.33 V 352.512 l 81.2,46.528 78.325,-46.528 z"
         id="path1947" />
      <g
         transform="translate(145.618,385.487)"
         id="g1951">
        <path
           class="d"
           d="m 136.932,541.783 a 1.66,1.66 0 0 1 -1.662,-1.662 v -3.769 a 1.6605,1.6605 0 1 1 3.321,0 v 3.769 a 1.661,1.661 0 0 1 -1.659,1.662 z m 125.456,-10.231 a 1.66,1.66 0 0 1 -1.662,-1.662 v -3.77 a 1.662,1.662 0 0 1 3.324,0 v 3.769 a 1.66,1.66 0 0 1 -1.662,1.662 z M 136.932,528.59 a 1.658,1.658 0 0 1 -1.662,-1.659 v -3.769 a 1.6605,1.6605 0 1 1 3.321,0 v 3.769 a 1.659,1.659 0 0 1 -1.659,1.659 z m 125.456,-10.225 a 1.663,1.663 0 0 1 -1.662,-1.665 v -3.766 a 1.662,1.662 0 1 1 3.324,0 v 3.766 a 1.663,1.663 0 0 1 -1.662,1.665 z M 136.932,515.4 a 1.66,1.66 0 0 1 -1.662,-1.662 v -3.77 a 1.6605,1.6605 0 1 1 3.321,0 v 3.77 a 1.661,1.661 0 0 1 -1.659,1.662 z m 125.456,-10.225 a 1.66,1.66 0 0 1 -1.662,-1.662 v -3.769 a 1.662,1.662 0 1 1 3.324,0 v 3.769 a 1.66,1.66 0 0 1 -1.662,1.665 z m -125.456,-2.962 a 1.662,1.662 0 0 1 -1.662,-1.662 v -3.766 a 1.6605,1.6605 0 1 1 3.321,0 v 3.766 a 1.664,1.664 0 0 1 -1.659,1.665 z m 125.456,-10.231 a 1.66,1.66 0 0 1 -1.662,-1.659 v -3.77 a 1.662,1.662 0 0 1 3.324,0 v 3.77 a 1.659,1.659 0 0 1 -1.662,1.662 z m -125.456,-2.959 a 1.66,1.66 0 0 1 -1.662,-1.662 v -3.77 a 1.6605,1.6605 0 0 1 3.321,0 v 3.77 a 1.661,1.661 0 0 1 -1.659,1.665 z m 125.456,-10.231 a 1.66,1.66 0 0 1 -1.662,-1.662 v -3.766 a 1.662,1.662 0 0 1 3.324,0 v 3.766 a 1.66,1.66 0 0 1 -1.662,1.665 z m -125.456,-2.958 a 1.66,1.66 0 0 1 -1.662,-1.662 V 470.4 a 1.6605,1.6605 0 1 1 3.321,0 v 3.77 a 1.662,1.662 0 0 1 -1.659,1.666 z m 125.456,-10.228 a 1.663,1.663 0 0 1 -1.662,-1.665 v -3.766 a 1.662,1.662 0 0 1 3.324,0 v 3.766 a 1.663,1.663 0 0 1 -1.662,1.667 z M 136.932,462.65 a 1.663,1.663 0 0 1 -1.662,-1.665 v -3.769 a 1.6605,1.6605 0 1 1 3.321,0 v 3.769 a 1.664,1.664 0 0 1 -1.659,1.667 z m 125.456,-10.231 a 1.66,1.66 0 0 1 -1.662,-1.662 v -3.767 a 1.662,1.662 0 0 1 3.324,0 v 3.769 a 1.66,1.66 0 0 1 -1.662,1.662 z m -125.456,-2.962 a 1.66,1.66 0 0 1 -1.662,-1.659 v -3.77 a 1.6605,1.6605 0 1 1 3.321,0 v 3.77 a 1.661,1.661 0 0 1 -1.659,1.661 z m 125.456,-10.228 a 1.66,1.66 0 0 1 -1.662,-1.662 V 433.8 a 1.662,1.662 0 0 1 3.324,0 v 3.77 a 1.66,1.66 0 0 1 -1.662,1.661 z m -125.456,-2.962 a 1.66,1.66 0 0 1 -1.662,-1.659 v -3.769 a 1.6605,1.6605 0 1 1 3.321,0 v 3.769 a 1.661,1.661 0 0 1 -1.659,1.661 z m 125.456,-10.228 a 1.66,1.66 0 0 1 -1.662,-1.662 v -3.77 a 1.662,1.662 0 0 1 3.324,0 v 3.77 a 1.66,1.66 0 0 1 -1.662,1.664 z m -125.456,-2.962 a 1.66,1.66 0 0 1 -1.662,-1.662 v -3.766 a 1.6605,1.6605 0 1 1 3.321,0 v 3.766 a 1.662,1.662 0 0 1 -1.659,1.664 z m 125.456,-10.228 a 1.662,1.662 0 0 1 -1.662,-1.659 v -3.769 a 1.662,1.662 0 1 1 3.324,0 v 3.769 a 1.662,1.662 0 0 1 -1.662,1.661 z M 136.932,409.9 a 1.663,1.663 0 0 1 -1.662,-1.665 v -3.769 a 1.6605,1.6605 0 0 1 3.321,0 v 3.769 a 1.664,1.664 0 0 1 -1.659,1.665 z m 64.517,-7.647 -2.287,-1.337 a 1.663,1.663 0 0 1 1.677,-2.872 l 1.411,0.826 0.087,-0.053 a 1.663,1.663 0 0 1 1.789,2.8 l -0.944,0.6 z m 60.939,-2.584 A 1.66,1.66 0 0 1 260.726,398 v -3.766 a 1.662,1.662 0 0 1 3.324,0 V 398 a 1.66,1.66 0 0 1 -1.662,1.664 z m -51.206,-2.841 a 1.662,1.662 0 0 1 -0.891,-3.064 l 3.178,-2.027 a 1.6635087,1.6635087 0 0 1 1.786,2.807 l -3.181,2.024 a 1.654,1.654 0 0 1 -0.892,0.255 z m -74.25,-0.118 a 1.66,1.66 0 0 1 -1.662,-1.662 v -3.769 a 1.6605,1.6605 0 1 1 3.321,0 v 3.769 a 1.661,1.661 0 0 1 -1.659,1.658 z m 54.935,-0.322 a 1.654,1.654 0 0 1 -0.839,-0.229 l -3.253,-1.9 a 1.662,1.662 0 0 1 1.677,-2.869 l 3.253,1.9 a 1.662,1.662 0 0 1 -0.839,3.1 z m 30.443,-6.641 a 1.659,1.659 0 0 1 -0.894,-3.061 l 3.184,-2.024 a 1.662,1.662 0 1 1 1.78,2.807 l -3.178,2.021 a 1.644,1.644 0 0 1 -0.891,0.252 z m -41.829,-0.019 a 1.658,1.658 0 0 1 -0.839,-0.226 l -3.25,-1.9 a 1.662,1.662 0 1 1 1.677,-2.869 l 3.249,1.9 a 1.661,1.661 0 0 1 -0.839,3.095 z m 81.906,-3.25 a 1.66,1.66 0 0 1 -1.662,-1.662 v -3.766 a 1.662,1.662 0 0 1 3.324,0 v 3.766 a 1.66,1.66 0 0 1 -1.661,1.658 z m -125.456,-2.959 a 1.66,1.66 0 0 1 -1.662,-1.662 v -3.769 a 1.6605,1.6605 0 1 1 3.321,0 v 3.769 a 1.661,1.661 0 0 1 -1.658,1.659 z m 32.164,-0.446 a 1.625,1.625 0 0 1 -0.836,-0.232 l -3.253,-1.9 a 1.662,1.662 0 1 1 1.677,-2.869 l 3.253,1.9 a 1.664,1.664 0 0 1 -0.842,3.1 z m 64.344,-0.405 a 1.659,1.659 0 0 1 -0.891,-3.061 l 3.178,-2.024 a 1.661,1.661 0 1 1 1.786,2.8 l -3.185,2.024 a 1.637,1.637 0 0 1 -0.888,0.258 z M 157.71,376.41 a 1.655,1.655 0 0 1 -0.836,-0.226 l -3.256,-1.9 a 1.664,1.664 0 0 1 1.68,-2.872 l 3.253,1.9 a 1.662,1.662 0 0 1 -0.842,3.095 z m 86.861,-0.823 a 1.661,1.661 0 0 1 -0.894,-3.064 l 3.178,-2.021 a 1.66,1.66 0 1 1 1.783,2.8 l -3.175,2.024 a 1.689,1.689 0 0 1 -0.892,0.261 z m 17.817,-2.3 a 1.66,1.66 0 0 1 -1.662,-1.662 v -3.766 a 1.662,1.662 0 0 1 3.324,0 v 3.766 a 1.66,1.66 0 0 1 -1.662,1.659 z m -125.456,-2.958 a 1.66,1.66 0 0 1 -1.662,-1.662 V 364.9 a 1.6605,1.6605 0 1 1 3.321,0 v 3.766 a 1.662,1.662 0 0 1 -1.659,1.66 z m 9.4,-0.576 a 1.62,1.62 0 0 1 -0.839,-0.226 l -3.256,-1.9 a 1.6620629,1.6620629 0 1 1 1.684,-2.866 l 3.25,1.9 a 1.661,1.661 0 0 1 -0.839,3.095 z M 255.7,368.512 a 1.662,1.662 0 0 1 -0.9,-3.064 l 3.181,-2.021 a 1.661,1.661 0 0 1 1.786,2.8 l -3.178,2.024 a 1.69,1.69 0 0 1 -0.889,0.261 z"
           transform="translate(-135.27,-363.167)"
           id="path1949" />
      </g>
      <path
         class="d"
         d="m 183.447,490.052 a 5.959,5.959 0 0 0 1.086,2.606 14.113,14.113 0 0 0 3.636,4.082 6.5,6.5 0 0 0 5.212,1.151 4.346,4.346 0 0 0 3.231,-3.525 3.918,3.918 0 0 0 0.269,-1.891 6.817,6.817 0 0 0 -3.825,-5.27 9.35,9.35 0 0 0 -4.791,-0.86 10.833,10.833 0 0 0 -0.009,-1.179 c 1.006,-0.028 2.012,-0.031 2.272,-0.371 a 2.875,2.875 0 0 0 0.257,-3.113 2.358,2.358 0 0 0 0.922,-2.55 3.133,3.133 0 0 0 -1.7,-1.947 c 0.1,-0.065 0.207,-0.121 0.306,-0.195 a 3.271,3.271 0 0 0 0.978,-1.062 3.7,3.7 0 0 0 0.127,-2.711 4.11,4.11 0 0 0 -0.715,-1.52 c 0.195,-0.146 0.4,-0.288 0.585,-0.449 a 1.981,1.981 0 0 0 0.588,-0.675 2.03,2.03 0 0 0 0.105,-0.993 c -0.065,-0.972 -0.2,-1.968 -0.21,-2.946 a 3.114,3.114 0 0 0 2.38,-2.915 2.407,2.407 0 0 0 -0.229,-1.4 4.36,4.36 0 0 0 -0.814,-0.925 8.491,8.491 0 0 1 -2.46,-5.335 c 0.176,-0.2 0.35,-0.415 0.517,-0.634 a 5.3,5.3 0 0 0 1.835,1.807 13.58,13.58 0 0 0 3.225,1.315 19.5,19.5 0 0 0 4.361,0.981 3.112,3.112 0 0 0 1.136,-0.115 2.058,2.058 0 0 0 2.575,0.13 c 0.913,0.721 2.661,0.514 3.658,0.356 a 21.316,21.316 0 0 0 4.785,-1.356 c 0.374,-0.155 0.8,-0.381 0.867,-0.78 a 0.868,0.868 0 0 0 -0.65,-0.9 2.712,2.712 0 0 0 -1.2,0 36.117,36.117 0 0 1 -3.865,0.368 14.065,14.065 0 0 0 -3.274,0.09 2.219,2.219 0 0 0 -1.368,-0.749 1.817,1.817 0 0 0 -1.489,0.5 6.37,6.37 0 0 0 -1.566,-0.634 12.686,12.686 0 0 1 -2.553,-1.126 c -1.3,-0.752 -2.476,-1.736 -3.828,-2.4 a 4.223,4.223 0 0 0 -0.879,-0.325 12.853,12.853 0 0 0 0.7,-1.714 13.777,13.777 0 0 0 0.381,-1.529 9.076,9.076 0 0 0 2.355,0.566 c 2.009,0.39 3.831,1.628 5.877,1.7 a 3.824,3.824 0 0 0 0.532,-0.022 2.638,2.638 0 0 0 1.092,0.969 2.207,2.207 0 0 0 1.371,0.019 2.063,2.063 0 0 0 1.092,-0.687 3.008,3.008 0 0 0 1.377,0.142 14.981,14.981 0 0 0 7.35,-2.293 1.414,1.414 0 0 0 0.461,-2.005 c -0.638,-0.761 -2.454,-0.285 -3.293,-0.173 a 20.989,20.989 0 0 0 -4.574,1.167 4.28,4.28 0 0 0 -1.529,0.891 0.8,0.8 0 0 0 -0.145,-0.2 1.427,1.427 0 0 0 -0.492,-0.263 3.289,3.289 0 0 0 -1.863,0.016 2.058,2.058 0 0 0 -0.3,-0.146 7.56,7.56 0 0 0 -1.516,-0.272 c -2.429,-0.387 -4.413,-2.21 -6.8,-2.813 a 2.312,2.312 0 0 0 -0.653,-0.08 27.158,27.158 0 0 0 -0.084,-3.33 c 0.046,0.006 0.093,0.015 0.139,0.025 a 50.827,50.827 0 0 0 7.387,0.464 2.2,2.2 0 0 0 0.8,0.783 3.4,3.4 0 0 0 4.67,-1.7 c 0.229,-0.087 0.455,-0.186 0.675,-0.291 a 34.363,34.363 0 0 0 3.466,-1.919 9.323,9.323 0 0 0 2.012,-1.591 c 0.449,-0.511 1.3,-1.65 0.823,-2.352 -0.492,-0.73 -1.6,-0.31 -2.2,-0.016 a 44.788,44.788 0 0 0 -5.24,3 1.756,1.756 0 0 0 -0.891,-0.576 0.9,0.9 0 0 0 -0.978,0.3 0.824,0.824 0 0 0 0.006,0.866 3.509,3.509 0 0 0 -0.591,0.115 3.8,3.8 0 0 0 -1.56,0.836 2.771,2.771 0 0 1 0.1,-0.873 0.2,0.2 0 0 0 -0.17,-0.269 1.418,1.418 0 0 0 -1.272,1.1 c -0.275,-0.031 -0.551,-0.056 -0.836,-0.108 a 36.816,36.816 0 0 0 -5.858,-0.935 2.206,2.206 0 0 0 -0.956,0.155 27.324,27.324 0 0 0 -0.836,-3.123 2.139,2.139 0 0 0 0.987,-0.164 68.188,68.188 0 0 1 7.248,-2 7.228,7.228 0 0 0 2.921,-1.362 c 0.031,-0.006 0.065,-0.006 0.1,-0.012 l 0.006,-0.068 0.019,-0.012 -0.015,-0.009 a 79.779,79.779 0 0 0 0.229,-16.452 c 0,0 -0.034,-0.622 -0.09,-1.108 A 20.369,20.369 0 0 0 210.468,414 c 1.294,-0.771 2.686,-1.81 2.906,-3.3 0.944,-6.307 -0.913,-12.673 -2.946,-18.717 -0.489,-1.451 -0.99,-2.9 -1.594,-4.311 -1.724,-4.02 -5.205,-7.025 -7.666,-10.64 a 0.316,0.316 0 0 0 -0.387,-0.1 5.457,5.457 0 0 0 0.486,1.879 35.222,35.222 0 0 1 1.049,20.627 5.8,5.8 0 0 1 -1.222,2.711 4.744,4.744 0 0 1 -0.962,0.727 12.212,12.212 0 0 1 -1.157,-1.244 c 0.275,-0.829 0.35,-1.4 0.405,-1.569 a 10.3,10.3 0 0 0 0.405,-2.5 c 0.235,-2.983 0.439,-6.134 -0.78,-8.87 a 31.1,31.1 0 0 1 -0.817,11.191 c -0.037,0.158 -0.1,0.309 -0.145,0.464 a 12.835,12.835 0 0 1 -1.894,-5.484 c -0.087,-0.839 -0.09,-1.687 -0.093,-2.525 q 0,-2.9 -0.012,-5.806 a 13.852,13.852 0 0 1 0.542,-4.738 0.862,0.862 0 0 0 -0.043,-0.9 5.408,5.408 0 0 0 -1.346,1.139 9.6,9.6 0 0 0 -1.2,1.95 c -2.853,5.747 -4.283,12.472 -2.522,18.643 a 7.331,7.331 0 0 0 1.913,3.494 c -0.065,0.028 -0.124,0.05 -0.189,0.074 a 4.292,4.292 0 0 0 -0.028,0.935 c -1.789,1.241 -6.917,2.816 -9.875,4.973 a 7.769,7.769 0 0 0 -1.863,2.807 c -0.183,-1.526 0.077,-3.12 -0.5,-4.537 -0.084,-0.21 -0.248,-0.446 -0.47,-0.4 -0.2,0.034 -0.282,0.269 -0.322,0.464 -0.344,1.609 -0.121,3.256 -0.489,4.859 a 2.326,2.326 0 0 1 -0.2,0.47 8.881,8.881 0 0 0 -2.237,-3.312 c -3.076,-2.064 -8.353,-3.448 -10.129,-4.63 a 9.877,9.877 0 0 1 -0.8,-0.61 7.484,7.484 0 0 0 1.711,-3.494 c 1.516,-6.233 -0.176,-12.9 -3.25,-18.531 a 9.655,9.655 0 0 0 -1.272,-1.9 5.374,5.374 0 0 0 -1.393,-1.083 0.87,0.87 0 0 0 -0.009,0.9 13.755,13.755 0 0 1 0.724,4.713 q 0.111,2.9 0.217,5.8 c 0.028,0.845 0.059,1.69 0.006,2.528 a 12.777,12.777 0 0 1 -1.188,4.6 31.249,31.249 0 0 1 -1.232,-11.077 c -1.1,2.779 -0.783,5.92 -0.43,8.894 a 10.276,10.276 0 0 0 0.5,2.482 c 0.053,0.136 0.13,0.563 0.334,1.182 a 12.723,12.723 0 0 1 -1.65,2.08 4.673,4.673 0 0 1 -0.99,-0.7 5.723,5.723 0 0 1 -1.328,-2.658 35.256,35.256 0 0 1 0.244,-20.651 5.4,5.4 0 0 0 0.415,-1.9 0.318,0.318 0 0 0 -0.381,0.121 c -2.318,3.708 -5.682,6.846 -7.248,10.928 -0.548,1.43 -0.993,2.9 -1.427,4.37 -1.8,6.121 -3.4,12.556 -2.216,18.822 0.282,1.479 1.708,2.457 3.033,3.182 a 20.442,20.442 0 0 0 6.134,1.021 c -0.04,0.486 -0.046,1.111 -0.046,1.111 a 80.052,80.052 0 0 0 0.867,16.427 l -0.012,0.006 0.019,0.016 0.009,0.065 c 0.034,0.012 0.065,0.006 0.1,0.016 a 7.227,7.227 0 0 0 2.971,1.247 68.132,68.132 0 0 1 7.322,1.711 c 0.1,0.034 0.2,0.059 0.3,0.087 -0.139,0.591 -0.254,1.192 -0.337,1.8 a 2.354,2.354 0 0 0 -0.907,0.018 36.946,36.946 0 0 0 -5.6,1.95 11.767,11.767 0 0 1 -2.1,0.535 3.735,3.735 0 0 0 -1.705,-0.569 2.281,2.281 0 0 0 -1.13,0.111 1.255,1.255 0 0 0 -0.275,0.183 5.652,5.652 0 0 0 -0.678,-0.359 41.811,41.811 0 0 0 -6.137,-2.244 c -0.644,-0.183 -1.8,-0.409 -2.16,0.4 -0.347,0.777 0.684,1.749 1.219,2.172 a 9.18,9.18 0 0 0 2.256,1.216 34.162,34.162 0 0 0 3.751,1.287 3.794,3.794 0 0 0 1.482,0.2 c 0.025,0 0.049,-0.012 0.077,-0.016 a 1.743,1.743 0 0 0 0.492,0.446 2.66,2.66 0 0 0 2.9,-0.359 6.08,6.08 0 0 0 1.037,-0.1 49.964,49.964 0 0 0 7.319,-1.749 24.643,24.643 0 0 0 0.557,4.481 2.834,2.834 0 0 0 -0.551,0.108 c -2.358,0.7 -4.268,2.594 -6.685,3.076 a 7.648,7.648 0 0 0 -1.5,0.331 2.055,2.055 0 0 0 -0.294,0.155 3.343,3.343 0 0 0 -1.863,0.059 1.44,1.44 0 0 0 -0.486,0.282 1.022,1.022 0 0 0 -0.136,0.2 4.1,4.1 0 0 0 -1.563,-0.833 20.833,20.833 0 0 0 -4.614,-0.987 c -0.845,-0.083 -2.68,-0.486 -3.284,0.3 a 1.413,1.413 0 0 0 0.542,1.987 14.957,14.957 0 0 0 7.431,2.005 2.946,2.946 0 0 0 1.371,-0.2 2.029,2.029 0 0 0 1.117,0.647 2.207,2.207 0 0 0 1.371,-0.065 2.682,2.682 0 0 0 1.052,-1.018 3.423,3.423 0 0 0 0.535,0 c 2.043,-0.152 3.813,-1.458 5.806,-1.928 a 6.683,6.683 0 0 0 2.6,-0.842 c 0.158,0.526 0.325,1.046 0.5,1.566 a 14.549,14.549 0 0 0 1.229,2.739 4.168,4.168 0 0 0 -1.027,0.4 c -1.328,0.712 -2.46,1.739 -3.732,2.544 a 12.893,12.893 0 0 1 -2.507,1.226 6.389,6.389 0 0 0 -1.538,0.693 1.81,1.81 0 0 0 -1.51,-0.446 2.183,2.183 0 0 0 -1.334,0.8 13.841,13.841 0 0 0 -3.277,0.04 36.935,36.935 0 0 1 -3.878,-0.22 2.663,2.663 0 0 0 -1.2,0.046 0.875,0.875 0 0 0 -0.616,0.925 c 0.09,0.4 0.517,0.6 0.9,0.743 a 21.133,21.133 0 0 0 4.837,1.167 c 1,0.118 2.754,0.263 3.636,-0.5 a 2.062,2.062 0 0 0 2.572,-0.232 3.06,3.06 0 0 0 1.139,0.074 19.685,19.685 0 0 0 4.317,-1.151 13.681,13.681 0 0 0 3.175,-1.439 5.062,5.062 0 0 0 1.913,-2.216 6.828,6.828 0 0 0 0.566,0.52 6.189,6.189 0 0 1 0.084,0.987 3.464,3.464 0 0 1 -1.393,2.9 c -0.337,0.22 -0.718,0.353 -1.052,0.569 a 2.712,2.712 0 0 0 -1.061,2.946 3.074,3.074 0 0 0 2.38,2.108 c 0.037,0.006 0.077,0.006 0.111,0.009 a 12.472,12.472 0 0 0 0.186,1.588 6.312,6.312 0 0 0 0.848,2.615 3.982,3.982 0 0 0 0.774,0.808 2.789,2.789 0 0 0 -0.5,2.337 3.846,3.846 0 0 0 1.046,1.789 2.761,2.761 0 0 0 -0.718,2.005 4.025,4.025 0 0 0 1.795,2.928 c 0.043,0.034 0.09,0.056 0.133,0.087 a 10.061,10.061 0 0 0 0.133,2.621 c 0.118,0.619 0.393,1.328 1.006,1.467 a 2.1,2.1 0 0 0 0.9,-0.08 c 0,0.149 -0.006,0.3 -0.006,0.446 -0.241,0.022 -0.483,0.043 -0.712,0.077 a 11.441,11.441 0 0 0 -6.542,2.8 4.077,4.077 0 0 0 -0.966,2.371 2.774,2.774 0 0 0 -0.1,0.421 4.363,4.363 0 0 0 1.922,4.079 6.291,6.291 0 0 0 4.549,0.888 5.064,5.064 0 0 0 1.653,-0.529 9.847,9.847 0 0 0 2.835,-2.346 c 0.73,-1 1.34,-1.875 2.021,-2.909 a 2.939,2.939 0 0 0 0.313,-0.644 c 0.105,0.012 0.21,0.012 0.313,0.031 0.43,0.065 0.864,0.137 1.3,0.195 z M 185.53,412 c 3.6,-1.507 5.756,-2.126 7.9,-3.553 a 9.486,9.486 0 0 0 1.062,2.145 10.077,10.077 0 0 0 3.508,3.963 7.164,7.164 0 0 0 3.132,0.761 c -1.1,2.333 -0.69,5.688 -1.482,8.13 a 3.979,3.979 0 0 1 -0.928,1.612 l 0.006,0.019 c -0.257,0.294 -0.486,0.616 -0.718,0.938 -1.65,2.247 -4.357,3.407 -6.935,4.469 l 0.009,0.1 a 25.354,25.354 0 0 0 -1.287,-2.429 46.991,46.991 0 0 1 -4.094,-9.383 7.746,7.746 0 0 1 -0.266,-1.724 3.331,3.331 0 0 0 -0.2,-0.953 c -0.059,-0.161 -0.17,-0.341 -0.337,-0.337 -0.142,0 -0.241,0.133 -0.334,0.248 a 2.086,2.086 0 0 1 -1.479,0.764 1.458,1.458 0 0 1 -0.941,-0.282 0.114,0.114 0 0 0 0.04,-0.083 5.693,5.693 0 0 1 3.344,-4.405 z m -26.7,4.785 a 7.18,7.18 0 0 0 3.1,-0.888 10.106,10.106 0 0 0 3.349,-4.1 8.408,8.408 0 0 0 1.139,-2.943 c 2.386,1.591 4.611,2.1 8.551,3.581 a 5.715,5.715 0 0 1 3.509,4.243 2.1,2.1 0 0 1 -1.733,0.08 1.049,1.049 0 0 0 -0.579,-0.121 0.587,0.587 0 0 0 -0.387,0.43 2.189,2.189 0 0 0 -0.037,0.6 2.41,2.41 0 0 1 -0.384,1.485 44.366,44.366 0 0 0 -2.566,3.63 c -0.309,0.514 -0.622,1.027 -0.932,1.541 -0.31,0.514 -0.628,1.043 -0.935,1.566 a 20.656,20.656 0 0 0 -1.875,3.989 13.569,13.569 0 0 0 -0.371,1.371 c -2.371,-0.891 -4.754,-1.943 -6.313,-3.909 -0.245,-0.306 -0.483,-0.622 -0.755,-0.91 l 0.006,-0.016 a 4,4 0 0 1 -0.993,-1.572 c -0.883,-2.411 -0.598,-5.775 -1.793,-8.062 z"
         transform="translate(32.76,51.093)"
         id="path1953" />
    </g>
  </g>
</svg>
